<mxfile host="app.diagrams.net" agent="Mozilla/5.0 (Windows NT 10.0; Win64; x64; rv:132.0) Gecko/20100101 Firefox/132.0" version="24.8.1">
  <diagram name="Page-1" id="7Ky6OLwMIGm5nxVrb8pm">
    <mxGraphModel dx="1990" dy="1186" grid="1" gridSize="10" guides="1" tooltips="1" connect="1" arrows="1" fold="1" page="1" pageScale="1" pageWidth="850" pageHeight="1100" math="0" shadow="0">
      <root>
        <mxCell id="0" />
        <mxCell id="1" parent="0" />
        <mxCell id="Da7PD-cJpyoy_3w9jdtS-1" value="" style="ellipse;whiteSpace=wrap;html=1;aspect=fixed;" vertex="1" parent="1">
          <mxGeometry x="30" y="320" width="80" height="80" as="geometry" />
        </mxCell>
        <mxCell id="Da7PD-cJpyoy_3w9jdtS-2" value="" style="endArrow=classic;html=1;rounded=0;exitX=1;exitY=0.5;exitDx=0;exitDy=0;entryX=0;entryY=0.5;entryDx=0;entryDy=0;" edge="1" parent="1" source="Da7PD-cJpyoy_3w9jdtS-1" target="Da7PD-cJpyoy_3w9jdtS-3">
          <mxGeometry width="50" height="50" relative="1" as="geometry">
            <mxPoint x="80" y="270" as="sourcePoint" />
            <mxPoint x="530" y="250" as="targetPoint" />
          </mxGeometry>
        </mxCell>
        <mxCell id="Da7PD-cJpyoy_3w9jdtS-3" value="" style="ellipse;whiteSpace=wrap;html=1;aspect=fixed;" vertex="1" parent="1">
          <mxGeometry x="250" y="320" width="80" height="80" as="geometry" />
        </mxCell>
        <mxCell id="Da7PD-cJpyoy_3w9jdtS-9" value="" style="ellipse;whiteSpace=wrap;html=1;aspect=fixed;" vertex="1" parent="1">
          <mxGeometry x="440" y="160" width="80" height="80" as="geometry" />
        </mxCell>
        <mxCell id="Da7PD-cJpyoy_3w9jdtS-10" value="" style="ellipse;whiteSpace=wrap;html=1;aspect=fixed;" vertex="1" parent="1">
          <mxGeometry x="440" y="480" width="80" height="80" as="geometry" />
        </mxCell>
        <mxCell id="Da7PD-cJpyoy_3w9jdtS-11" value="" style="endArrow=classic;html=1;rounded=0;exitX=1;exitY=1;exitDx=0;exitDy=0;" edge="1" parent="1" source="Da7PD-cJpyoy_3w9jdtS-3" target="Da7PD-cJpyoy_3w9jdtS-10">
          <mxGeometry width="50" height="50" relative="1" as="geometry">
            <mxPoint x="290" y="500" as="sourcePoint" />
            <mxPoint x="340" y="450" as="targetPoint" />
          </mxGeometry>
        </mxCell>
        <mxCell id="Da7PD-cJpyoy_3w9jdtS-12" value="" style="endArrow=classic;html=1;rounded=0;exitX=1;exitY=0;exitDx=0;exitDy=0;entryX=0;entryY=1;entryDx=0;entryDy=0;" edge="1" parent="1" source="Da7PD-cJpyoy_3w9jdtS-3" target="Da7PD-cJpyoy_3w9jdtS-9">
          <mxGeometry width="50" height="50" relative="1" as="geometry">
            <mxPoint x="150" y="230" as="sourcePoint" />
            <mxPoint x="200" y="180" as="targetPoint" />
          </mxGeometry>
        </mxCell>
        <mxCell id="Da7PD-cJpyoy_3w9jdtS-13" value="Ongoing" style="text;html=1;align=center;verticalAlign=middle;whiteSpace=wrap;rounded=0;" vertex="1" parent="1">
          <mxGeometry x="260" y="345" width="60" height="30" as="geometry" />
        </mxCell>
        <mxCell id="Da7PD-cJpyoy_3w9jdtS-14" value="Start" style="text;html=1;align=center;verticalAlign=middle;whiteSpace=wrap;rounded=0;" vertex="1" parent="1">
          <mxGeometry x="40" y="345" width="60" height="30" as="geometry" />
        </mxCell>
        <mxCell id="Da7PD-cJpyoy_3w9jdtS-15" value="Win" style="text;html=1;align=center;verticalAlign=middle;whiteSpace=wrap;rounded=0;" vertex="1" parent="1">
          <mxGeometry x="450" y="185" width="60" height="30" as="geometry" />
        </mxCell>
        <mxCell id="Da7PD-cJpyoy_3w9jdtS-17" value="Lose" style="text;html=1;align=center;verticalAlign=middle;whiteSpace=wrap;rounded=0;" vertex="1" parent="1">
          <mxGeometry x="450" y="505" width="60" height="30" as="geometry" />
        </mxCell>
        <mxCell id="Da7PD-cJpyoy_3w9jdtS-18" value="" style="curved=1;endArrow=classic;html=1;rounded=0;entryX=0.104;entryY=0.144;entryDx=0;entryDy=0;entryPerimeter=0;exitX=0.5;exitY=0;exitDx=0;exitDy=0;" edge="1" parent="1" source="Da7PD-cJpyoy_3w9jdtS-3" target="Da7PD-cJpyoy_3w9jdtS-3">
          <mxGeometry width="50" height="50" relative="1" as="geometry">
            <mxPoint x="130" y="300" as="sourcePoint" />
            <mxPoint x="180" y="250" as="targetPoint" />
            <Array as="points">
              <mxPoint x="270" y="270" />
              <mxPoint x="210" y="310" />
            </Array>
          </mxGeometry>
        </mxCell>
        <mxCell id="Da7PD-cJpyoy_3w9jdtS-19" value="" style="curved=1;endArrow=classic;html=1;rounded=0;entryX=0;entryY=1;entryDx=0;entryDy=0;exitX=0.5;exitY=1;exitDx=0;exitDy=0;" edge="1" parent="1" source="Da7PD-cJpyoy_3w9jdtS-3" target="Da7PD-cJpyoy_3w9jdtS-3">
          <mxGeometry width="50" height="50" relative="1" as="geometry">
            <mxPoint x="270" y="480" as="sourcePoint" />
            <mxPoint x="238" y="492" as="targetPoint" />
            <Array as="points">
              <mxPoint x="310" y="430" />
              <mxPoint x="250" y="430" />
            </Array>
          </mxGeometry>
        </mxCell>
        <mxCell id="Da7PD-cJpyoy_3w9jdtS-20" value="guess letter" style="text;html=1;align=center;verticalAlign=middle;whiteSpace=wrap;rounded=0;" vertex="1" parent="1">
          <mxGeometry x="140" y="320" width="60" height="30" as="geometry" />
        </mxCell>
        <mxCell id="Da7PD-cJpyoy_3w9jdtS-22" value="correct letter" style="text;html=1;align=center;verticalAlign=middle;whiteSpace=wrap;rounded=0;" vertex="1" parent="1">
          <mxGeometry x="220" y="250" width="60" height="30" as="geometry" />
        </mxCell>
        <mxCell id="Da7PD-cJpyoy_3w9jdtS-24" value="incorrect letter" style="text;html=1;align=center;verticalAlign=middle;whiteSpace=wrap;rounded=0;" vertex="1" parent="1">
          <mxGeometry x="240" y="440" width="60" height="30" as="geometry" />
        </mxCell>
        <mxCell id="Da7PD-cJpyoy_3w9jdtS-25" value="no more guesses" style="text;html=1;align=center;verticalAlign=middle;whiteSpace=wrap;rounded=0;" vertex="1" parent="1">
          <mxGeometry x="390" y="410" width="60" height="30" as="geometry" />
        </mxCell>
        <mxCell id="Da7PD-cJpyoy_3w9jdtS-26" value="word guessed" style="text;html=1;align=center;verticalAlign=middle;whiteSpace=wrap;rounded=0;" vertex="1" parent="1">
          <mxGeometry x="330" y="250" width="60" height="30" as="geometry" />
        </mxCell>
        <mxCell id="Da7PD-cJpyoy_3w9jdtS-29" value="" style="curved=1;endArrow=classic;html=1;rounded=0;exitX=0.175;exitY=0.069;exitDx=0;exitDy=0;exitPerimeter=0;entryX=0.5;entryY=0;entryDx=0;entryDy=0;" edge="1" parent="1" source="Da7PD-cJpyoy_3w9jdtS-9" target="Da7PD-cJpyoy_3w9jdtS-1">
          <mxGeometry width="50" height="50" relative="1" as="geometry">
            <mxPoint x="130" y="180" as="sourcePoint" />
            <mxPoint x="180" y="130" as="targetPoint" />
            <Array as="points">
              <mxPoint x="290" y="80" />
              <mxPoint x="130" y="130" />
            </Array>
          </mxGeometry>
        </mxCell>
        <mxCell id="Da7PD-cJpyoy_3w9jdtS-30" value="" style="curved=1;endArrow=classic;html=1;rounded=0;exitX=0;exitY=1;exitDx=0;exitDy=0;entryX=0.5;entryY=1;entryDx=0;entryDy=0;" edge="1" parent="1" source="Da7PD-cJpyoy_3w9jdtS-10" target="Da7PD-cJpyoy_3w9jdtS-1">
          <mxGeometry width="50" height="50" relative="1" as="geometry">
            <mxPoint x="504" y="506" as="sourcePoint" />
            <mxPoint x="120" y="660" as="targetPoint" />
            <Array as="points">
              <mxPoint x="240" y="660" />
              <mxPoint x="60" y="580" />
            </Array>
          </mxGeometry>
        </mxCell>
        <mxCell id="Da7PD-cJpyoy_3w9jdtS-31" value="restart" style="text;html=1;align=center;verticalAlign=middle;whiteSpace=wrap;rounded=0;" vertex="1" parent="1">
          <mxGeometry x="220" y="60" width="60" height="30" as="geometry" />
        </mxCell>
        <mxCell id="Da7PD-cJpyoy_3w9jdtS-33" value="restart" style="text;html=1;align=center;verticalAlign=middle;whiteSpace=wrap;rounded=0;" vertex="1" parent="1">
          <mxGeometry x="200" y="640" width="60" height="30" as="geometry" />
        </mxCell>
      </root>
    </mxGraphModel>
  </diagram>
</mxfile>
